HIERARCHY
ROOT m_avg_root
{
	OFFSET 0.000000 0.000000 0.000000
	CHANNELS 6 Xposition Yposition Zposition Xrotation Yrotation Zrotation
	JOINT m_avg_Pelvis
	{
		OFFSET -0.002174 0.972724 0.028584
		CHANNELS 6 Xposition Yposition Zposition Xrotation Yrotation Zrotation
		JOINT m_avg_L_Hip
		{
			OFFSET 0.058581 -0.082280 -0.017664
			CHANNELS 6 Xposition Yposition Zposition Xrotation Yrotation Zrotation
			JOINT m_avg_L_Knee
			{
				OFFSET 0.043451 -0.386469 0.008037
				CHANNELS 6 Xposition Yposition Zposition Xrotation Yrotation Zrotation
				JOINT m_avg_L_Ankle
				{
					OFFSET -0.014790 -0.426874 -0.037428
					CHANNELS 6 Xposition Yposition Zposition Xrotation Yrotation Zrotation
					JOINT m_avg_L_Foot
					{
						OFFSET 0.041054 -0.060286 0.122042
						CHANNELS 6 Xposition Yposition Zposition Xrotation Yrotation Zrotation
						End Site
						{
							OFFSET 0.000000 0.142177 0.000000
						}
					}
				}
			}
		}
		JOINT m_avg_R_Hip
		{
			OFFSET -0.060310 -0.090513 -0.013543
			CHANNELS 6 Xposition Yposition Zposition Xrotation Yrotation Zrotation
			JOINT m_avg_R_Knee
			{
				OFFSET -0.043257 -0.383688 -0.004843
				CHANNELS 6 Xposition Yposition Zposition Xrotation Yrotation Zrotation
				JOINT m_avg_R_Ankle
				{
					OFFSET 0.019056 -0.420046 -0.034562
					CHANNELS 6 Xposition Yposition Zposition Xrotation Yrotation Zrotation
					JOINT m_avg_R_Foot
					{
						OFFSET -0.034840 -0.062106 0.130323
						CHANNELS 6 Xposition Yposition Zposition Xrotation Yrotation Zrotation
						End Site
						{
							OFFSET 0.000000 0.148510 0.000000
						}
					}
				}
			}
		}
		JOINT m_avg_Spine1
		{
			OFFSET 0.004439 0.124404 -0.038385
			CHANNELS 6 Xposition Yposition Zposition Xrotation Yrotation Zrotation
			JOINT m_avg_Spine2
			{
				OFFSET 0.004488 0.137956 0.026820
				CHANNELS 6 Xposition Yposition Zposition Xrotation Yrotation Zrotation
				JOINT m_avg_Spine3
				{
					OFFSET -0.002265 0.056032 0.002855
					CHANNELS 6 Xposition Yposition Zposition Xrotation Yrotation Zrotation
					JOINT m_avg_Neck
					{
						OFFSET -0.013390 0.211635 -0.033468
						CHANNELS 6 Xposition Yposition Zposition Xrotation Yrotation Zrotation
						JOINT m_avg_Head
						{
							OFFSET 0.010113 0.088937 0.050410
							CHANNELS 6 Xposition Yposition Zposition Xrotation Yrotation Zrotation
							End Site
							{
								OFFSET 0.000000 0.102729 0.000000
							}
						}
					}
					JOINT m_avg_L_Collar
					{
						OFFSET 0.071702 0.114000 -0.018898
						CHANNELS 6 Xposition Yposition Zposition Xrotation Yrotation Zrotation
						JOINT m_avg_L_Shoulder
						{
							OFFSET 0.122921 0.045205 -0.019046
							CHANNELS 6 Xposition Yposition Zposition Xrotation Yrotation Zrotation
							JOINT m_avg_L_Elbow
							{
								OFFSET 0.255332 -0.015649 -0.022946
								CHANNELS 6 Xposition Yposition Zposition Xrotation Yrotation Zrotation
								JOINT m_avg_L_Wrist
								{
									OFFSET 0.265709 0.012698 -0.007375
									CHANNELS 6 Xposition Yposition Zposition Xrotation Yrotation Zrotation
									JOINT m_avg_L_Hand
									{
										OFFSET 0.086691 -0.010636 -0.015594
										CHANNELS 6 Xposition Yposition Zposition Xrotation Yrotation Zrotation
										End Site
										{
											OFFSET 0.000000 0.088722 0.000000
										}
									}
								}
							}
						}
					}
					JOINT m_avg_R_Collar
					{
						OFFSET -0.082954 0.112472 -0.023707
						CHANNELS 6 Xposition Yposition Zposition Xrotation Yrotation Zrotation
						JOINT m_avg_R_Shoulder
						{
							OFFSET -0.113228 0.046853 -0.008472
							CHANNELS 6 Xposition Yposition Zposition Xrotation Yrotation Zrotation
							JOINT m_avg_R_Elbow
							{
								OFFSET -0.260127 -0.014369 -0.031269
								CHANNELS 6 Xposition Yposition Zposition Xrotation Yrotation Zrotation
								JOINT m_avg_R_Wrist
								{
									OFFSET -0.269108 0.006794 -0.006027
									CHANNELS 6 Xposition Yposition Zposition Xrotation Yrotation Zrotation
									JOINT m_avg_R_Hand
									{
										OFFSET -0.088754 -0.008652 -0.010107
										CHANNELS 6 Xposition Yposition Zposition Xrotation Yrotation Zrotation
										End Site
										{
											OFFSET 0.000000 0.089745 0.000000
										}
									}
								}
							}
						}
					}
				}
			}
		}
	}
}
MOTION
Frames: 7
Frame Time: 0.041667
-0.053582 0.140034 1.410577 -0.000000 0.000000 -0.000000 -0.055756 1.112757 1.439161 156.134518 -14.161659 -1.038685 0.058581 -0.082280 -0.017664 -49.091145 -0.866557 16.473619 0.043451 -0.386469 0.008037 157.754489 -20.219119 3.808936 -0.014790 -0.426874 -0.037428 -25.288461 9.426787 13.912345 0.041054 -0.060286 0.122042 -28.295898 17.973499 4.273286 -0.060310 -0.090513 -0.013543 -44.734143 -8.329094 1.922154 -0.043257 -0.383688 -0.004843 153.195775 16.910905 0.261354 0.019056 -0.420045 -0.034562 -29.117424 -17.142909 -1.347736 -0.034840 -0.062106 0.130323 -17.123791 21.595737 -16.301817 0.004439 0.124403 -0.038385 12.306294 9.111401 -5.057293 0.004488 0.137957 0.026821 -1.525596 3.495307 8.236760 -0.002265 0.056033 0.002855 9.186519 6.711255 6.439968 -0.013390 0.211636 -0.033468 24.666822 -1.337361 -1.636217 0.010113 0.088937 0.050410 1.718209 1.004246 -4.478909 0.071702 0.114000 -0.018898 -7.078289 -10.156561 -3.185539 0.122921 0.045205 -0.019046 -14.560527 -24.418415 9.250428 0.255332 -0.015649 -0.022946 7.627534 -79.030432 31.458905 0.265709 0.012698 -0.007375 -7.707041 2.605203 11.715558 0.086691 -0.010636 -0.015594 1.841425 1.406810 -3.041372 -0.082954 0.112472 -0.023708 -18.708371 17.224806 7.661521 -0.113228 0.046853 -0.008472 0.174330 21.210794 32.066058 -0.260127 -0.014369 -0.031269 -47.751902 128.977440 24.938677 -0.269109 0.006794 -0.006027 -6.743652 2.414662 -3.409053 -0.088754 -0.008652 -0.010107 2.117839 0.806667 3.441744 
-0.058914 0.148213 1.397347 -0.000000 0.000000 -0.000000 -0.061087 1.120936 1.425930 158.350928 -14.193361 0.072428 0.058581 -0.082280 -0.017664 -48.464287 -0.832178 15.376267 0.043451 -0.386470 0.008037 157.863458 -19.832511 3.564567 -0.014790 -0.426874 -0.037428 -24.902504 9.490439 13.573389 0.041054 -0.060286 0.122042 -27.761741 17.476658 4.341910 -0.060310 -0.090513 -0.013542 -44.927301 -8.035745 1.776545 -0.043257 -0.383688 -0.004843 153.331695 16.438425 0.139456 0.019055 -0.420045 -0.034562 -28.766465 -16.713963 -1.214409 -0.034840 -0.062105 0.130323 -16.937425 20.861706 -15.919311 0.004439 0.124404 -0.038385 12.676731 8.704402 -5.576332 0.004488 0.137957 0.026821 -1.086353 3.330018 6.988310 -0.002265 0.056032 0.002855 11.929002 6.667854 5.943541 -0.013390 0.211636 -0.033468 21.959036 -0.903828 -1.343542 0.010113 0.088937 0.050410 -0.504276 3.491127 -5.820309 0.071702 0.114000 -0.018898 -6.672015 -10.263561 -2.192998 0.122921 0.045205 -0.019046 -13.777338 -27.108688 9.508278 0.255332 -0.015649 -0.022947 6.601914 -78.015281 29.070675 0.265709 0.012698 -0.007375 -6.796113 2.587443 11.083930 0.086691 -0.010636 -0.015594 1.493342 1.180560 -2.927265 -0.082954 0.112472 -0.023707 -20.035224 18.457869 7.261722 -0.113228 0.046853 -0.008472 -2.147730 23.800542 30.868046 -0.260128 -0.014369 -0.031269 -49.731253 126.717139 27.534521 -0.269108 0.006794 -0.006027 -6.463881 2.490787 -3.162342 -0.088754 -0.008652 -0.010107 2.065972 0.824803 3.413926 
-0.066219 0.152089 1.387034 -0.000000 0.000000 -0.000000 -0.068393 1.124813 1.415618 161.172452 -14.198576 1.428986 0.058581 -0.082280 -0.017664 -47.865293 -0.799276 14.260214 0.043451 -0.386470 0.008037 157.962741 -19.448475 3.317254 -0.014790 -0.426874 -0.037428 -24.529434 9.527246 13.220413 0.041054 -0.060286 0.122042 -27.214546 16.974461 4.436957 -0.060310 -0.090514 -0.013543 -45.055141 -7.719966 1.601603 -0.043257 -0.383688 -0.004843 153.435692 15.963643 0.019749 0.019055 -0.420046 -0.034562 -28.426286 -16.252208 -1.086822 -0.034840 -0.062105 0.130323 -16.739808 20.109257 -15.534611 0.004439 0.124403 -0.038385 13.258834 8.258201 -6.062108 0.004488 0.137956 0.026820 -0.473278 3.147431 5.727000 -0.002265 0.056032 0.002855 14.733806 6.547147 5.205691 -0.013390 0.211636 -0.033468 18.974390 -0.084148 -1.530039 0.010113 0.088938 0.050410 -2.816285 6.208975 -7.320907 0.071702 0.114000 -0.018898 -6.113461 -10.326082 -1.313453 0.122921 0.045205 -0.019046 -12.543081 -29.696942 9.894741 0.255332 -0.015649 -0.022947 6.485137 -77.260593 27.307571 0.265709 0.012698 -0.007375 -5.874362 2.520547 10.444917 0.086690 -0.010636 -0.015594 1.162365 0.956571 -2.808173 -0.082954 0.112472 -0.023707 -21.213733 19.279273 6.687623 -0.113229 0.046853 -0.008473 -3.755519 25.817920 28.754147 -0.260127 -0.014369 -0.031269 -51.898059 124.598360 30.367448 -0.269109 0.006794 -0.006027 -6.205605 2.564698 -2.912278 -0.088754 -0.008652 -0.010107 2.019222 0.826597 3.378727 
-0.072844 0.154547 1.374217 -0.000000 0.000000 -0.000000 -0.075017 1.127271 1.402801 163.831882 -14.323171 2.836420 0.058581 -0.082280 -0.017664 -47.241744 -0.729618 13.123179 0.043452 -0.386470 0.008037 158.061629 -19.066601 3.066923 -0.014790 -0.426875 -0.037428 -24.166254 9.550154 12.852701 0.041054 -0.060286 0.122043 -26.660113 16.471580 4.549667 -0.060310 -0.090513 -0.013543 -45.162662 -7.392705 1.391693 -0.043257 -0.383688 -0.004843 153.523678 15.485596 -0.100073 0.019055 -0.420046 -0.034562 -28.097750 -15.776726 -0.971124 -0.034840 -0.062106 0.130323 -16.545380 19.347976 -15.138817 0.004440 0.124404 -0.038386 13.906024 7.746859 -6.449965 0.004488 0.137956 0.026820 0.016252 2.912410 4.531824 -0.002265 0.056033 0.002855 17.017401 6.390303 4.533427 -0.013390 0.211636 -0.033468 15.852946 1.503992 -2.301307 0.010113 0.088937 0.050410 -4.896546 9.296856 -8.887693 0.071702 0.114000 -0.018898 -6.128720 -10.310784 -0.278272 0.122921 0.045205 -0.019046 -12.177313 -32.145073 10.730433 0.255332 -0.015649 -0.022946 4.525708 -75.568687 24.396742 0.265709 0.012698 -0.007375 -4.966756 2.460123 9.823034 0.086691 -0.010636 -0.015594 0.831203 0.707706 -2.693710 -0.082954 0.112472 -0.023708 -21.983725 19.464921 5.989565 -0.113228 0.046853 -0.008472 -4.396617 26.797971 25.850869 -0.260127 -0.014369 -0.031269 -54.295513 122.601513 33.458365 -0.269108 0.006794 -0.006027 -5.968543 2.650652 -2.664238 -0.088754 -0.008651 -0.010107 1.968396 0.828420 3.339462 
-0.080329 0.156020 1.362010 -0.000000 0.000000 -0.000000 -0.082503 1.128744 1.390594 166.217271 -13.636153 4.421350 0.058581 -0.082280 -0.017664 -46.650113 -0.594449 11.978826 0.043451 -0.386470 0.008037 158.161964 -18.689790 2.810452 -0.014790 -0.426874 -0.037428 -23.815830 9.551856 12.455793 0.041054 -0.060286 0.122042 -26.095762 15.969276 4.683735 -0.060310 -0.090513 -0.013543 -45.242029 -7.034972 1.103626 -0.043257 -0.383688 -0.004843 153.584112 15.001575 -0.221848 0.019056 -0.420045 -0.034562 -27.792965 -15.279755 -0.874841 -0.034840 -0.062106 0.130323 -16.364288 18.578475 -14.723289 0.004440 0.124404 -0.038385 14.430574 7.507877 -6.582225 0.004488 0.137956 0.026821 0.282756 2.948903 3.355657 -0.002265 0.056033 0.002855 18.777459 6.783407 3.518556 -0.013390 0.211636 -0.033468 12.495382 5.149813 -3.537464 0.010113 0.088937 0.050410 -6.522989 13.742185 -10.268685 0.071702 0.114000 -0.018898 -6.284282 -10.586870 0.917681 0.122921 0.045205 -0.019046 -11.745121 -35.253615 11.984446 0.255332 -0.015649 -0.022946 2.956574 -73.790078 22.058427 0.265709 0.012698 -0.007375 -4.064001 2.361571 9.197569 0.086690 -0.010636 -0.015594 0.523260 0.451856 -2.553529 -0.082954 0.112472 -0.023707 -22.460812 19.010325 5.115913 -0.113228 0.046853 -0.008472 -4.386851 26.697801 22.134782 -0.260127 -0.014369 -0.031269 -56.984494 120.696382 36.664947 -0.269108 0.006794 -0.006027 -5.767474 2.748019 -2.415626 -0.088754 -0.008652 -0.010107 1.915728 0.828817 3.295901 
-0.085514 0.155806 1.354908 -0.000000 0.000000 -0.000000 -0.087687 1.128529 1.383492 168.626879 -12.574660 6.218646 0.058581 -0.082280 -0.017664 -46.119667 -0.387558 10.856329 0.043451 -0.386469 0.008037 158.255852 -18.319839 2.545787 -0.014790 -0.426874 -0.037428 -23.492410 9.544355 12.033922 0.041054 -0.060286 0.122042 -25.540548 15.464878 4.841465 -0.060310 -0.090513 -0.013542 -45.306800 -6.655454 0.763540 -0.043257 -0.383688 -0.004843 153.619451 14.514692 -0.343882 0.019056 -0.420045 -0.034561 -27.517999 -14.764373 -0.805077 -0.034840 -0.062106 0.130323 -16.217454 17.791586 -14.281916 0.004439 0.124404 -0.038385 14.794557 7.310988 -6.517582 0.004488 0.137956 0.026821 0.471365 3.000961 2.191605 -0.002265 0.056032 0.002855 20.292384 7.153199 2.327420 -0.013390 0.211635 -0.033468 9.186207 11.048409 -4.565613 0.010113 0.088938 0.050410 -7.656197 19.887691 -11.194736 0.071702 0.114000 -0.018898 -6.606057 -11.619417 1.935277 0.122921 0.045205 -0.019046 -11.709089 -39.563505 13.147370 0.255332 -0.015649 -0.022946 2.754368 -72.792830 21.809725 0.265709 0.012698 -0.007375 -3.157419 2.177625 8.575328 0.086691 -0.010636 -0.015594 0.257577 0.213350 -2.423100 -0.082954 0.112472 -0.023708 -22.605489 18.237473 4.413808 -0.113228 0.046853 -0.008473 -4.249327 26.059784 18.942030 -0.260128 -0.014369 -0.031269 -60.235534 118.771020 40.285893 -0.269108 0.006794 -0.006027 -5.627342 2.866124 -2.152338 -0.088754 -0.008652 -0.010107 1.875374 0.850734 3.268635 
-0.086149 0.158231 1.350380 -0.000000 0.000000 -0.000000 -0.088322 1.130955 1.378963 170.709568 -11.457017 7.568142 0.058581 -0.082280 -0.017664 -45.697295 -0.092344 9.775175 0.043451 -0.386469 0.008037 158.348141 -17.960628 2.271654 -0.014790 -0.426874 -0.037428 -23.209930 9.530918 11.589166 0.041054 -0.060286 0.122042 -24.999773 14.967362 5.007378 -0.060310 -0.090513 -0.013543 -45.380258 -6.241324 0.405394 -0.043257 -0.383688 -0.004843 153.635570 14.027000 -0.463020 0.019055 -0.420045 -0.034562 -27.287410 -14.241448 -0.767464 -0.034840 -0.062106 0.130323 -16.103414 16.977243 -13.820937 0.004439 0.124404 -0.038385 15.088501 6.980762 -6.277783 0.004488 0.137957 0.026820 0.558586 2.894377 1.262382 -0.002265 0.056033 0.002855 21.295913 7.278546 1.624162 -0.013390 0.211636 -0.033468 6.753411 18.039829 -4.827373 0.010113 0.088937 0.050410 -7.944163 27.072524 -11.662212 0.071702 0.114000 -0.018898 -7.182205 -13.089277 2.846072 0.122921 0.045205 -0.019046 -12.186832 -44.058706 14.570716 0.255332 -0.015649 -0.022947 4.118909 -72.937213 23.901100 0.265709 0.012698 -0.007375 -2.241769 1.842876 7.974411 0.086690 -0.010636 -0.015594 0.053993 0.010051 -2.309558 -0.082954 0.112472 -0.023707 -22.939872 17.590109 3.954105 -0.113228 0.046853 -0.008472 -5.241753 25.775879 16.791257 -0.260127 -0.014369 -0.031269 -63.967365 116.953411 43.589984 -0.269108 0.006794 -0.006027 -5.589091 3.013084 -1.853826 -0.088754 -0.008652 -0.010107 1.859797 0.903204 3.286278 
